<svg id="Layer_1" data-name="Layer 1" xmlns="http://www.w3.org/2000/svg" viewBox="0 0 509.81 127.49"><defs><style>.cls-1,.cls-2{fill:#313131;}.cls-1{fill-rule:evenodd;}.cls-3{fill:#00aff0;}</style></defs><path class="cls-1" d="M46.32,28A46.2,46.2,0,1,0,92.64,74.17,46.19,46.19,0,0,0,46.32,28Zm0,87.57A41.38,41.38,0,1,1,87.8,74.17a41.38,41.38,0,0,1-41.48,41.4Z" transform="translate(-0.24 -0.51)"/><path class="cls-2" d="M103.84,108.3h5.91V72.66c0-12.8,9.3-22,21.38-22,12.44,0,19.57,8.33,19.57,21v36.6h5.92V70.61c0-14.74-9.06-25.37-24.64-25.37-11.23,0-18.12,5.68-22.23,12.93V46.69h-5.91Zm74.88-88.19h5.92V108.3h-5.92ZM215.44,128c8.82,0,15.1-4.6,20.53-17.52l26.7-63.79h-6.53l-22.22,55.09L208.31,46.69h-6.88L231,107.94c-4.59,10.75-8.82,14.5-15.22,14.5a21.37,21.37,0,0,1-10.5-2.3l-2.06,5.2A27.9,27.9,0,0,0,215.44,128Z" transform="translate(-0.24 -0.51)"/><path class="cls-3" d="M62.75,59c-.2-.2-.46-.18-2,.51-.17.08-.82.54-.82.54l-.42-.39a.94.94,0,0,0-.8-.17c-.88.2-4.37,2.65-5.74,4-.85.84-1.43,1.28-1.67,1.25a14,14,0,0,1-1.9-.71c-1.49-.65-1.78-.9-9.93-8.22-6.45-5.8-8.54-7.57-9-7.68-1.3-.29-2.52.84-4,3.76l-.79,1.51,15.74,22-10,13.18-.53-.31c-.3-.16-2-1.54-3.82-3.06a28.76,28.76,0,0,0-3.66-2.79c-.85-.08-3.51,3.3-3,3.81a33.09,33.09,0,0,1,3.39,4.45A32.13,32.13,0,0,0,27,94.75,31.83,31.83,0,0,0,31.07,98a34.66,34.66,0,0,1,4.44,3.39c.51.51,3.89-2.15,3.82-3a27.54,27.54,0,0,0-2.8-3.66c-1.52-1.81-2.89-3.53-3.06-3.82l-.3-.54,13.18-10,22,15.74,1.5-.78c2.92-1.52,4.06-2.73,3.76-4-.1-.47-1.88-2.55-7.68-9-7.32-8.15-7.56-8.45-8.21-9.94A14.05,14.05,0,0,1,57,70.4c0-.23.41-.81,1.26-1.66a24.3,24.3,0,0,0,4-5.75,1,1,0,0,0-.17-.8c-.09-.08-.39-.41-.39-.41s.46-.65.54-.82C62.93,59.46,63,59.2,62.75,59Z" transform="translate(-0.24 -0.51)"/><path class="cls-3" d="M283.89.51q11,0,18.16,3.18a25.08,25.08,0,0,1,10.83,8.44,22.51,22.51,0,0,1,4,11.93,33.41,33.41,0,0,1-2.35,13.64,49.47,49.47,0,0,1-8.16,13.64,59.55,59.55,0,0,1-13.45,11.94,71.59,71.59,0,0,1-18.21,8.43,75.11,75.11,0,0,1-22.39,3.18h-1.57Q247.4,79.87,244,85t-6,10.28a69.33,69.33,0,0,0-4.33,10.09A30.14,30.14,0,0,0,232,115a6.47,6.47,0,0,0,.37,2.17,15.37,15.37,0,0,1,.55,2,3.39,3.39,0,0,1,.05,1.47c-.09.37-.45.56-1.06.56a7,7,0,0,1-3.32-1,14.3,14.3,0,0,1-3.45-2.67,15.29,15.29,0,0,1-2.72-3.82,9.91,9.91,0,0,1-1.11-4.57,18.17,18.17,0,0,1,1.89-7.51A65.65,65.65,0,0,1,228.08,93q3-4.51,6.78-9.27t7.56-9.54a45,45,0,0,1-5.9-1.47,17.47,17.47,0,0,1-5.07-2.54,12.6,12.6,0,0,1-3.55-3.91,10.86,10.86,0,0,1-1.34-5.53A11.72,11.72,0,0,1,228.22,55a28.89,28.89,0,0,1,4.38-5.76A42.64,42.64,0,0,1,238.82,44a45.9,45.9,0,0,1,7.1-4.1,31.1,31.1,0,0,1,7.1-2.35,14.67,14.67,0,0,1,6.22-.05,7.41,7.41,0,0,1,4.37,2.86q1.67,2.2,1.66,6.45a19.36,19.36,0,0,1-2.35,8.43A100.37,100.37,0,0,1,257,65.49,67.18,67.18,0,0,0,274.26,62a74.33,74.33,0,0,0,14.88-7,62.36,62.36,0,0,0,11.76-9.27,46.76,46.76,0,0,0,7.83-10.32,25.46,25.46,0,0,0,3.18-10.14,13.44,13.44,0,0,0-2.21-8.75q-2.58-3.83-8.39-6.13T286,8.16a77.47,77.47,0,0,0-38.89,10A71.71,71.71,0,0,0,233.57,28a73.75,73.75,0,0,0-9.63,10.78,49.84,49.84,0,0,0-5.72,10,21.31,21.31,0,0,0-1.89,7.51,1.27,1.27,0,0,1-1.24,1.43,4.13,4.13,0,0,1-2.67-.78,9.65,9.65,0,0,1-2.68-2.72,7.35,7.35,0,0,1-1.24-4.29q0-1.94,2-6.36a54.64,54.64,0,0,1,6.17-9.9,91.8,91.8,0,0,1,10.37-11.34,78.27,78.27,0,0,1,14.61-10.69,87.46,87.46,0,0,1,18.94-8A81.45,81.45,0,0,1,283.89.51ZM248.78,65.77a103.87,103.87,0,0,0,7.37-11.57,21.79,21.79,0,0,0,3-10.18c0-.86-.72-1.34-2.17-1.43a17,17,0,0,0-5.39.73,49.14,49.14,0,0,0-7,2.54,37.38,37.38,0,0,0-7,4,24.94,24.94,0,0,0-5.39,5.25,10.12,10.12,0,0,0-2.16,6.13,2.85,2.85,0,0,0,2,2.58,18.11,18.11,0,0,0,5,1.34,57,57,0,0,0,6.13.5C245.32,65.74,247.18,65.77,248.78,65.77Z" transform="translate(-0.24 -0.51)"/><path class="cls-3" d="M346.19,63.65a1.63,1.63,0,0,1,1.06-.74,1.87,1.87,0,0,1,1,.09.88.88,0,0,1,.5.69,1.45,1.45,0,0,1-.27,1.06q-1.67,2.31-4.47,6.36t-6.41,8.71c-2.39,3.1-5,6.27-7.74,9.49A94.82,94.82,0,0,1,321.45,98a54,54,0,0,1-8.48,6.36,15.84,15.84,0,0,1-15.35,1,10.62,10.62,0,0,1-4.19-4,15.22,15.22,0,0,1-1.89-5.49,39.46,39.46,0,0,1-.46-6,35,35,0,0,1,1.15-7.83,103.4,103.4,0,0,1,3.23-10.6q2.07-5.81,5-12.17t6.41-12.58a124.17,124.17,0,0,1,7.56-11.84A75.88,75.88,0,0,1,322.83,25a41.71,41.71,0,0,1,9-6.82A18.94,18.94,0,0,1,341,15.63a12.65,12.65,0,0,1,2.72.32,6.33,6.33,0,0,1,2.58,1.25,6.8,6.8,0,0,1,1.89,2.44,9,9,0,0,1,.74,3.91q0,5-3.69,11.89a93.78,93.78,0,0,1-9.95,14.66,177.81,177.81,0,0,1-14.56,15.76q-8.29,8-17.42,15.3a36,36,0,0,0-1.2,7.14,14.73,14.73,0,0,0,.64,5.67,7.51,7.51,0,0,0,2.68,3.73A8.46,8.46,0,0,0,310.53,99a11.85,11.85,0,0,0,6.26-2.17,46,46,0,0,0,7-5.53,96.06,96.06,0,0,0,7.05-7.46c2.34-2.74,4.5-5.42,6.5-8.07s3.78-5,5.34-7.23S345.39,64.75,346.19,63.65ZM344.07,21.9q-2.29,0-5.48,2.35a49.24,49.24,0,0,0-6.82,6.31,101.23,101.23,0,0,0-7.47,9.26Q320.48,45.13,317,51t-6.55,12a112.65,112.65,0,0,0-5.07,11.75,120.73,120.73,0,0,0,12.86-11q6-5.94,10.92-11.79a126,126,0,0,0,8.48-11.3A85.93,85.93,0,0,0,343.24,31a22.16,22.16,0,0,0,2.31-6.64C345.73,22.73,345.24,21.9,344.07,21.9Z" transform="translate(-0.24 -0.51)"/><path class="cls-3" d="M392.83,63.65a1.6,1.6,0,0,1,1.06-.74,1.82,1.82,0,0,1,1,.09.87.87,0,0,1,.51.69,1.42,1.42,0,0,1-.28,1.06q-1.65,2.31-4.61,6.36T384,79.82q-3.6,4.65-7.65,9.49T368.45,98a61,61,0,0,1-7.23,6.36c-2.28,1.66-4.21,2.49-5.81,2.49-2.09,0-3.61-.47-4.56-1.43a6.83,6.83,0,0,1-1.89-3.18,12.9,12.9,0,0,1-.28-4.7,26.65,26.65,0,0,1-3.87,4.7,23,23,0,0,1-4.29,3.18,9.88,9.88,0,0,1-5.11,1.43,13,13,0,0,1-4.15-.74,11.51,11.51,0,0,1-4.1-2.44,12.62,12.62,0,0,1-3.09-4.47,17.11,17.11,0,0,1-1.19-6.82,26.63,26.63,0,0,1,1.33-7.74,47.53,47.53,0,0,1,3.78-8.8,60.93,60.93,0,0,1,5.9-8.8,48.46,48.46,0,0,1,7.65-7.7,37.92,37.92,0,0,1,9-5.39,25.6,25.6,0,0,1,10.05-2,10.71,10.71,0,0,1,4.47.83,7.31,7.31,0,0,1,2.9,2.31,9.65,9.65,0,0,1,1.62,3.5,18.57,18.57,0,0,1,.5,4.42,14.7,14.7,0,0,1-1,5.07,11.63,11.63,0,0,1,1.75.55c.61.25,1.2.51,1.75.79a7.72,7.72,0,0,1,1.38.83c.37.27.56.54.56.78a11.82,11.82,0,0,1-1.61,2.44q-1.62,2.17-3.88,5.26c-1.5,2-3,4.28-4.6,6.68A76.3,76.3,0,0,0,360.48,92a14,14,0,0,0-1.75,5c-.13,1.35.52,2,1.93,2q1.57,0,4.2-2.17a64.37,64.37,0,0,0,5.8-5.53q3.18-3.36,6.59-7.46c2.28-2.74,4.43-5.42,6.45-8.07s3.86-5,5.49-7.23S392,64.75,392.83,63.65Zm-56.59,38.61a8.75,8.75,0,0,0,5.07-1.93,36.35,36.35,0,0,0,5.44-5,80.85,80.85,0,0,0,5.48-6.77q2.72-3.73,5.21-7.33a19.5,19.5,0,0,1-1.34-1.66,3.24,3.24,0,0,1-.6-1,7,7,0,0,1,1.25-1.52,35.33,35.33,0,0,0,2.76-3.46,31.13,31.13,0,0,0,2.81-4.84A13.26,13.26,0,0,0,363.61,63a6.27,6.27,0,0,0-.87-3.46,3.14,3.14,0,0,0-2.81-1.33,15.07,15.07,0,0,0-9,3.27,38.79,38.79,0,0,0-8.06,8.16,58.25,58.25,0,0,0-6.27,10.6,54.78,54.78,0,0,0-3.73,10.59,18.87,18.87,0,0,0-.37,8.16Q333.2,102.26,336.24,102.26Z" transform="translate(-0.24 -0.51)"/><path class="cls-3" d="M401.68,106.87a6.62,6.62,0,0,1-4.52-1.38,7.85,7.85,0,0,1-2.21-3,10.36,10.36,0,0,1-.74-4.52,19.32,19.32,0,0,1,2.12-8.29,68.91,68.91,0,0,1,5.07-8.81q2.94-4.36,6.17-8.47T413,65.17a19.5,19.5,0,0,0,2.81-5c.4-1.26-.17-1.89-1.7-1.89q-1.85,0-4.61,2.07a54.94,54.94,0,0,0-6.08,5.49q-3.33,3.4-7,7.79c-2.43,2.92-4.83,5.89-7.19,8.94s-4.67,6-6.91,8.94-4.27,5.51-6.09,7.78-3.35,4.11-4.6,5.49-2.14,2.07-2.63,2.07a6.15,6.15,0,0,1-2.4-.46,8.53,8.53,0,0,1-1.93-1.1,5.88,5.88,0,0,1-1.25-1.25,2,2,0,0,1-.41-.87A20.64,20.64,0,0,1,365,99.91q1.89-3,4.74-7.65t6.18-10.36q3.31-5.72,6.17-11.29a112.43,112.43,0,0,0,4.75-10.42,22.91,22.91,0,0,0,1.89-7.88c0-.24.41-.35,1.24-.32a7.27,7.27,0,0,1,2.77.74,8.92,8.92,0,0,1,2.81,2.07,5.05,5.05,0,0,1,1.29,3.59,15.06,15.06,0,0,1-1.2,5.3q-1.2,3.09-2.62,5.9t-2.49,4.84c-.71,1.35-1,2-.79,2a9.11,9.11,0,0,0,1.71-1.8q1.52-1.8,3.92-4.56c1.59-1.85,3.41-3.81,5.43-5.9a82.12,82.12,0,0,1,6.36-5.9,40.45,40.45,0,0,1,6.68-4.56,13.5,13.5,0,0,1,6.32-1.8,5.15,5.15,0,0,1,4.51,1.94A9.16,9.16,0,0,1,426,59.31a13.8,13.8,0,0,1-1.25,5.26,49.18,49.18,0,0,1-3.18,6.17q-1.93,3.23-4.28,6.59c-1.57,2.25-3.11,4.41-4.61,6.5s-2.9,4.06-4.19,5.9a33.88,33.88,0,0,0-2.91,4.84,6.18,6.18,0,0,0-.78,3.27c.12.8.8,1.2,2,1.2q1.56,0,4.19-2.17a64.34,64.34,0,0,0,5.81-5.53Q420,88,423.43,83.88c2.27-2.74,4.42-5.42,6.45-8.07s3.85-5,5.48-7.23,2.84-3.83,3.64-4.93a1.63,1.63,0,0,1,1.06-.74,1.87,1.87,0,0,1,1,.09.88.88,0,0,1,.5.69,1.45,1.45,0,0,1-.27,1.06q-1.67,2.31-4.52,6.36c-1.91,2.71-4,5.61-6.36,8.71s-4.82,6.27-7.46,9.49-5.24,6.13-7.79,8.71a56.91,56.91,0,0,1-7.33,6.36C405.51,106,403.46,106.87,401.68,106.87Z" transform="translate(-0.24 -0.51)"/><path class="cls-3" d="M475.31,63.09a2,2,0,0,1,1.06-.69,1.44,1.44,0,0,1,1,.09,1,1,0,0,1,.5.7,1.33,1.33,0,0,1-.27,1q-1.67,2.31-4.47,6.36t-6.5,8.8q-3.69,4.76-8,9.63a90,90,0,0,1-9,8.85,52,52,0,0,1-9.5,6.5,20.4,20.4,0,0,1-9.54,2.53,12.8,12.8,0,0,1-4.28-.83,13.23,13.23,0,0,1-4.38-2.62,14.08,14.08,0,0,1-3.36-4.66,16.22,16.22,0,0,1-1.34-6.91,26.27,26.27,0,0,1,1.34-7.7,47.1,47.1,0,0,1,3.78-8.71,58.15,58.15,0,0,1,5.89-8.66,48,48,0,0,1,7.65-7.51,39.71,39.71,0,0,1,9-5.3,25.53,25.53,0,0,1,10.05-2c3.19,0,5.34.62,6.45,1.84a6.93,6.93,0,0,1,1.66,4.8,15.36,15.36,0,0,1-2.31,8.06,23.5,23.5,0,0,1-6.36,6.82,34.44,34.44,0,0,1-9.49,4.84,39.58,39.58,0,0,1-11.61,2,57.53,57.53,0,0,0-2.91,8.29,29.2,29.2,0,0,0-1.06,7.19,8.73,8.73,0,0,0,1.29,5,4.65,4.65,0,0,0,4.15,1.89c1.91,0,4.12-.82,6.64-2.48a61,61,0,0,0,7.88-6.32q4.1-3.83,8.2-8.48t7.65-9.07q3.54-4.43,6.27-8T475.31,63.09Zm-19.17-6.45a11.32,11.32,0,0,0-5.57,1.58,25.89,25.89,0,0,0-5.49,4.21A43.43,43.43,0,0,0,440,68.59a72.47,72.47,0,0,0-4.47,7.31,25.12,25.12,0,0,0,8.57-1.57,27.76,27.76,0,0,0,6.77-3.66A23.3,23.3,0,0,0,455.59,66a17.3,17.3,0,0,0,2.58-4.54A5.14,5.14,0,0,0,458.4,58,2.15,2.15,0,0,0,456.14,56.64Z" transform="translate(-0.24 -0.51)"/><path class="cls-3" d="M507.48,63.65a1.61,1.61,0,0,1,1-.74,1.72,1.72,0,0,1,1,.09,1,1,0,0,1,.55.69,1.23,1.23,0,0,1-.23,1.06q-1.65,2.31-4.37,6.36t-6.18,8.71q-3.45,4.65-7.51,9.49A84,84,0,0,1,483.33,98a48.56,48.56,0,0,1-8.85,6.36,18.25,18.25,0,0,1-8.84,2.49h-1.39a12.45,12.45,0,0,1-5.25-1,11.26,11.26,0,0,1-3.64-2.58,10.15,10.15,0,0,1-2.12-3.6,12.24,12.24,0,0,1-.69-4,4.71,4.71,0,0,1,.55-2.58,1.71,1.71,0,0,1,1.2-.88,1.43,1.43,0,0,1,1.2.65,3.09,3.09,0,0,1,.55,2,7.28,7.28,0,0,0,1.61,4.56c1.08,1.38,2.91,2.08,5.49,2.08a6.48,6.48,0,0,0,5.8-2.77,15.69,15.69,0,0,0,2.31-7.14,50,50,0,0,0-.05-9.77q-.51-5.4-1.38-10.69c-.59-3.54-1.14-6.82-1.66-9.86a45.61,45.61,0,0,1-.78-7.24,11.83,11.83,0,0,1,1.43-5.71,16.83,16.83,0,0,1,8.61-7.75,14.75,14.75,0,0,1,5.44-1.1,3.52,3.52,0,0,1,2.12.6,1.67,1.67,0,0,1,.83,1.33,4,4,0,0,1-1.11,2.45c-.73.89-1.53,1.89-2.39,3a25.52,25.52,0,0,0-2.4,3.78,10.4,10.4,0,0,0-1.1,4.89,45.88,45.88,0,0,0,.73,8.2q.74,4,1.62,8.06t1.61,7.93a42.65,42.65,0,0,1,.74,7.88,24.89,24.89,0,0,1-.23,3.27,19.56,19.56,0,0,1-.7,3.18,43.28,43.28,0,0,0,4.47-4.33q2.35-2.58,4.84-5.53c1.66-2,3.29-4,4.89-6.08s3.09-4.07,4.47-6,2.61-3.55,3.68-5Z" transform="translate(-0.24 -0.51)"/></svg>